# xmcd CD database file
#
# Track frame offsets:
#	150
#	21384
#	37890
#	55294
#	75494
#	90833
#	108254
#	125315
#	140240
#	157208
#	172896
#	189744
#	207544
#	223271
#	237332
#	250790
#	272294
#	289436
#	304038
#	318088
#	334018
#
# Disc length: 4715 seconds
#
# Revision: 0
# Processed by: cddbd v1.5.2PL0 Copyright (c) Steve Scherf et al.
# Submitted via: CDex 1.51
#
DISCID=2d126915
DTITLE=Juli Maners - The Tender Side - Juli Sings Glenn Erickson
DYEAR=2007
DGENRE=Country
TTITLE0=Where Does Love Go
TTITLE1=Six Young Men (w. Mak Kaylor)
TTITLE2=It's My Heart
TTITLE3=When
TTITLE4=Do You Love Me (w. William Ray)
TTITLE5=You Make My World Seem Right
TTITLE6=You Loved Me Forever For  Awhile
TTITLE7=Did I Fall In Love (w. William Ray)
TTITLE8=After All These Years
TTITLE9=Road That Wasn't Taken (w. Mak Kaylor)
TTITLE10=Somewhere Between The Mem'ries And Dreams
TTITLE11=For The Sake Of Your Love (w. Mak Kaylor)
TTITLE12=Sometimes
TTITLE13=Need Somebody (w. William Ray)
TTITLE14=Miracle Of Love
TTITLE15=Living In Autumn (w. William Ray)
TTITLE16=Star To Guide You Home
TTITLE17=You Know How To Turn Me On (w. Mak Kaylor)
TTITLE18=Old Broken Heart
TTITLE19=It's Only Me (w. Mak Kaylor)
TTITLE20=Heart Of Stone
EXTD=YEAR: 2007
EXTT0=
EXTT1=
EXTT2=
EXTT3=
EXTT4=
EXTT5=
EXTT6=
EXTT7=
EXTT8=
EXTT9=
EXTT10=
EXTT11=
EXTT12=
EXTT13=
EXTT14=
EXTT15=
EXTT16=
EXTT17=
EXTT18=
EXTT19=
EXTT20=
PLAYORDER=
